<?xml version="1.0" encoding="UTF-8"?>
<svg id="Warstwa_2" data-name="Warstwa 2" xmlns="http://www.w3.org/2000/svg" viewBox="0 0 208.33 55.7">
  <defs>
    <style>
      .cls-1 {
        fill: #fff;
      }

      .cls-2 {
        fill: #102a38;
      }

      .cls-3, .cls-4 {
        fill: #57cc98;
      }

      .cls-4 {
        opacity: .5;
      }
    </style>
  </defs>
  <g id="Layer_3" data-name="Layer 3">
    <g>
      <path class="cls-2" d="m100.23,54.96V11.39h28.13v6.41h-20.16v12.2h16.31v6.29h-16.31v18.67h-7.97Z"/>
      <path class="cls-2" d="m134.21,54.96V11.39h14.87c5.1,0,9.3.9,12.6,2.71,3.3,1.81,5.75,4.34,7.34,7.59,1.6,3.26,2.4,7.09,2.4,11.48s-.8,8.23-2.4,11.48c-1.6,3.26-4.05,5.79-7.34,7.59-3.3,1.81-7.5,2.71-12.6,2.71h-14.87Zm7.97-6.85h6.54c3.65,0,6.53-.59,8.65-1.77,2.12-1.18,3.63-2.88,4.54-5.1.91-2.22,1.37-4.91,1.37-8.06s-.46-5.79-1.37-8.03c-.91-2.24-2.43-3.96-4.54-5.17-2.12-1.2-5-1.8-8.65-1.8h-6.54v29.94Z"/>
      <path class="cls-2" d="m193.02,55.7c-3.2,0-6.02-.55-8.46-1.65-2.45-1.1-4.38-2.68-5.79-4.73-1.41-2.05-2.14-4.55-2.18-7.5h8.4c.08,2.03.82,3.74,2.21,5.13,1.39,1.39,3.31,2.08,5.76,2.08,2.12,0,3.8-.51,5.04-1.52,1.24-1.02,1.87-2.37,1.87-4.08s-.55-3.17-1.65-4.17c-1.1-1-2.56-1.8-4.39-2.43-1.83-.62-3.78-1.29-5.85-1.99-3.36-1.16-5.92-2.65-7.69-4.48-1.76-1.83-2.65-4.25-2.65-7.28-.04-2.57.57-4.78,1.84-6.63,1.27-1.85,3-3.28,5.2-4.29,2.2-1.02,4.73-1.52,7.59-1.52s5.47.52,7.69,1.56c2.22,1.04,3.96,2.49,5.23,4.36,1.27,1.87,1.94,4.09,2.02,6.66h-8.53c-.04-1.53-.63-2.89-1.77-4.08-1.14-1.18-2.73-1.77-4.76-1.77-1.74-.04-3.21.38-4.39,1.28-1.18.89-1.77,2.19-1.77,3.89,0,1.45.46,2.6,1.37,3.45.91.85,2.16,1.57,3.73,2.15,1.58.58,3.38,1.2,5.41,1.87,2.16.75,4.13,1.62,5.91,2.61,1.78,1,3.21,2.31,4.29,3.95,1.08,1.64,1.62,3.75,1.62,6.32,0,2.28-.58,4.4-1.74,6.35-1.16,1.95-2.88,3.52-5.17,4.7-2.28,1.18-5.08,1.77-8.4,1.77Z"/>
    </g>
    <circle class="cls-4" cx="56.14" cy="27.09" r="14.27"/>
    <path class="cls-1" d="m66.77,28.07c0-6.33-5.12-11.45-11.45-11.45"/>
    <path class="cls-3" d="m82.18,19.38c-.04-.13-.09-.26-.13-.39-.04-.13-.08-.26-.12-.39-1.03-3.51-3.13-6.94-5.94-9.93-3.2-3.4-7.03-5.83-11.49-7.27C60.24.02,55.91-.34,51.51.32c-3.18.48-6.19,1.56-9.02,3.16-1.64.93-3.16,2.01-4.58,3.21L7.21,29.59l12.04-2.41L0,41.53l32.33-11.02.63,2.2,4.25-1.45c-.17-.75-.29-1.52-.36-2.29,0-.05-.01-.1-.02-.15-.02-.17-.03-.35-.04-.52-.01-.17-.02-.33-.03-.5-.12-3.16.54-6.4,2.07-9.42,4.81-9.5,16.41-13.3,25.91-8.49s13.3,16.41,8.49,25.91-16.41,13.3-25.91,8.49c-3.09-1.56-5.57-3.85-7.35-6.54-.02-.03-.04-.06-.06-.09,0-.01-.02-.03-.02-.04h0s0,0,0,0c-.39-.6-.75-1.22-1.07-1.86l-4.45,1.44.58,2.02L2.3,49.75h23.84l-7.54,3.65-3.38,1.6h.03s-.03.02-.03.02h.04l-.18.09h41.05,0c1.06-.01,2.12-.08,3.19-.21,3.23-.38,6.29-1.29,9.14-2.79,3.94-2.06,7.22-4.92,9.84-8.55,2.74-3.8,4.4-8.03,4.96-12.66.5-4.07.16-8.08-1.09-11.52Z"/>
  </g>
</svg>