<?xml version="1.0" encoding="UTF-8"?>
<svg id="Warstwa_2" data-name="Warstwa 2" xmlns="http://www.w3.org/2000/svg" viewBox="0 0 280.68 302.51">
  <defs>
    <style>
      .cls-1, .cls-2 {
        fill: #fff;
      }

      .cls-3 {
        fill: #57cc98;
      }

      .cls-2 {
        opacity: .5;
      }
    </style>
  </defs>
  <g id="Layer_3" data-name="Layer 3">
    <rect id="bg2" class="cls-3" width="280.68" height="302.51"/>
    <circle class="cls-2" cx="176.31" cy="143.18" r="31.17"/>
    <path class="cls-1" d="m233.21,126.33c-.09-.29-.19-.57-.29-.85-.09-.29-.18-.57-.27-.86-2.25-7.66-6.84-15.16-12.97-21.68-6.98-7.43-15.35-12.73-25.09-15.88-9.3-3.01-18.77-3.8-28.38-2.35-6.96,1.06-13.52,3.4-19.7,6.91-3.59,2.04-6.91,4.38-10,7.02l-67.06,50,26.3-5.27-42.06,31.36,70.62-24.06,1.38,4.8,9.29-3.16c-.37-1.65-.62-3.32-.79-5-.01-.11-.02-.22-.03-.33-.03-.38-.06-.76-.09-1.14-.02-.36-.04-.73-.06-1.09-.26-6.91,1.17-13.98,4.52-20.58,10.51-20.75,35.84-29.05,56.59-18.54,20.75,10.51,29.05,35.84,18.54,56.59-10.51,20.75-35.84,29.05-56.59,18.54-6.75-3.42-12.17-8.41-16.06-14.29-.04-.06-.09-.13-.13-.2-.02-.03-.04-.05-.05-.08h0s0,0,0,0c-.86-1.32-1.64-2.67-2.34-4.07l-9.71,3.14,1.27,4.42-71.31,23.02h52.08l-16.48,7.97-7.38,3.49h.07s-.07.03-.07.03h.09l-.39.19h89.68,0c2.32-.03,4.64-.18,6.97-.46,7.06-.83,13.74-2.82,19.97-6.09,8.61-4.51,15.78-10.75,21.49-18.68,5.99-8.31,9.6-17.53,10.83-27.65,1.08-8.89.35-17.65-2.37-25.16Z"/>
    <g>
      <polygon class="cls-1" points="170.14 140.52 154.16 140.52 154.16 146.79 176.41 146.79 198.47 146.79 198.47 140.52 170.14 140.52"/>
      <rect class="cls-1" x="162.52" y="126.45" width="27.57" height="6.27"/>
      <polygon class="cls-1" points="162.55 155.39 162.55 161.66 190.12 161.66 190.12 160.5 190.12 155.39 185.01 155.39 162.55 155.39"/>
    </g>
  </g>
</svg>