<?xml version="1.0" encoding="UTF-8"?>
<svg id="Warstwa_2" data-name="Warstwa 2" xmlns="http://www.w3.org/2000/svg" viewBox="0 0 293.45 67.51">
  <defs>
    <style>
      .cls-1 {
        fill: #fff;
      }

      .cls-2 {
        fill: #102a38;
      }

      .cls-3, .cls-4 {
        fill: #57cc98;
      }

      .cls-5 {
        isolation: isolate;
      }

      .cls-4 {
        opacity: .5;
      }
    </style>
  </defs>
  <g id="Layer_3" data-name="Layer 3">
    <g id="text162511-3">
      <g class="cls-5">
        <path class="cls-2" d="m120.31,29.6V0h17.75v4.36h-12.73v8.29h10.29v4.27h-10.29v12.69h-5.03Z"/>
        <path class="cls-2" d="m146.9,30.11c-1.68,0-3.05-.29-4.12-.87-1.07-.58-1.87-1.35-2.4-2.3-.52-.96-.79-2.02-.79-3.17,0-1.95.71-3.52,2.12-4.74,1.41-1.21,3.54-1.82,6.36-1.82h4.95v-.51c0-1.44-.38-2.49-1.14-3.17-.76-.68-1.7-1.01-2.83-1.01-1.02,0-1.91.26-2.67.78-.76.52-1.23,1.29-1.41,2.3h-4.91c.13-1.52.61-2.85,1.43-3.97.82-1.13,1.89-1.99,3.2-2.6,1.31-.61,2.78-.91,4.4-.91,2.78,0,4.96.75,6.56,2.24,1.6,1.49,2.4,3.61,2.4,6.34v12.9h-4.28l-.47-3.38c-.58,1.13-1.38,2.06-2.42,2.79-1.04.73-2.36,1.1-3.99,1.1Zm1.14-4.23c1.44,0,2.56-.51,3.36-1.52.8-1.01,1.3-2.27,1.51-3.76h-4.28c-1.34,0-2.29.26-2.87.78-.58.52-.86,1.16-.86,1.92,0,.82.29,1.45.86,1.9.58.45,1.33.68,2.28.68Z"/>
        <path class="cls-2" d="m170.9,30.11c-1.73,0-3.25-.3-4.56-.91-1.31-.61-2.36-1.44-3.14-2.52-.79-1.07-1.26-2.31-1.41-3.72h5.07c.16.82.58,1.52,1.28,2.09.69.58,1.59.87,2.69.87s1.91-.24,2.42-.72c.51-.48.77-1.03.77-1.65,0-.9-.37-1.52-1.1-1.84-.73-.32-1.75-.64-3.06-.95-.84-.2-1.69-.44-2.55-.72-.86-.28-1.66-.64-2.38-1.08-.72-.44-1.3-1-1.75-1.69-.45-.69-.67-1.54-.67-2.56,0-1.86.69-3.43,2.06-4.69,1.38-1.27,3.31-1.9,5.79-1.9,2.3,0,4.14.58,5.52,1.73,1.38,1.16,2.19,2.75,2.46,4.78h-4.75c-.29-1.55-1.38-2.33-3.26-2.33-.94,0-1.67.2-2.18.59-.51.4-.77.89-.77,1.48s.38,1.11,1.14,1.48c.76.37,1.77.71,3.02,1.01,1.36.34,2.61.71,3.75,1.12,1.14.41,2.05,1.01,2.73,1.82.68.8,1.02,1.95,1.02,3.45.03,1.3-.29,2.47-.94,3.51-.65,1.04-1.6,1.86-2.83,2.45-1.23.59-2.68.89-4.36.89Z"/>
        <path class="cls-2" d="m191.52,29.6c-2.04,0-3.68-.54-4.91-1.61-1.23-1.07-1.85-2.97-1.85-5.71v-9.13h-3.34v-4.52h3.34l.59-5.62h4.44v5.62h5.26v4.52h-5.26v9.18c0,1.02.2,1.71.61,2.09.41.38,1.11.57,2.1.57h2.44v4.61h-3.42Z"/>
        <path class="cls-2" d="m208.84,29.6V0h9.39c3.22,0,5.87.61,7.95,1.84,2.08,1.23,3.63,2.95,4.63,5.16,1.01,2.21,1.51,4.81,1.51,7.8s-.5,5.59-1.51,7.8c-1.01,2.21-2.55,3.93-4.63,5.16-2.08,1.23-4.73,1.84-7.95,1.84h-9.39Zm5.03-4.65h4.12c2.3,0,4.12-.4,5.46-1.21,1.34-.8,2.29-1.96,2.87-3.47.58-1.51.86-3.33.86-5.48s-.29-3.93-.86-5.45c-.58-1.52-1.53-2.69-2.87-3.51-1.33-.82-3.16-1.23-5.46-1.23h-4.12v20.34Z"/>
        <path class="cls-2" d="m243.37,30.11c-1.68,0-3.05-.29-4.12-.87-1.07-.58-1.87-1.35-2.4-2.3-.52-.96-.79-2.02-.79-3.17,0-1.95.71-3.52,2.12-4.74,1.41-1.21,3.54-1.82,6.36-1.82h4.95v-.51c0-1.44-.38-2.49-1.14-3.17-.76-.68-1.7-1.01-2.83-1.01-1.02,0-1.91.26-2.67.78-.76.52-1.23,1.29-1.41,2.3h-4.91c.13-1.52.61-2.85,1.43-3.97.82-1.13,1.89-1.99,3.2-2.6,1.31-.61,2.78-.91,4.4-.91,2.78,0,4.96.75,6.56,2.24,1.6,1.49,2.4,3.61,2.4,6.34v12.9h-4.28l-.47-3.38c-.58,1.13-1.38,2.06-2.42,2.79-1.04.73-2.36,1.1-3.99,1.1Zm1.14-4.23c1.44,0,2.56-.51,3.36-1.52.8-1.01,1.3-2.27,1.51-3.76h-4.28c-1.34,0-2.29.26-2.87.78-.58.52-.86,1.16-.86,1.92,0,.82.29,1.45.86,1.9.58.45,1.33.68,2.28.68Z"/>
        <path class="cls-2" d="m267.72,29.6c-2.04,0-3.68-.54-4.91-1.61-1.23-1.07-1.85-2.97-1.85-5.71v-9.13h-3.34v-4.52h3.34l.59-5.62h4.44v5.62h5.26v4.52h-5.26v9.18c0,1.02.2,1.71.61,2.09.41.38,1.11.57,2.1.57h2.44v4.61h-3.42Z"/>
        <path class="cls-2" d="m282.29,30.11c-1.68,0-3.05-.29-4.12-.87-1.07-.58-1.87-1.35-2.4-2.3-.52-.96-.79-2.02-.79-3.17,0-1.95.71-3.52,2.12-4.74,1.41-1.21,3.54-1.82,6.36-1.82h4.95v-.51c0-1.44-.38-2.49-1.14-3.17-.76-.68-1.7-1.01-2.83-1.01-1.02,0-1.91.26-2.67.78-.76.52-1.23,1.29-1.41,2.3h-4.91c.13-1.52.61-2.85,1.43-3.97.82-1.13,1.89-1.99,3.2-2.6,1.31-.61,2.78-.91,4.4-.91,2.78,0,4.96.75,6.56,2.24,1.6,1.49,2.4,3.61,2.4,6.34v12.9h-4.28l-.47-3.38c-.58,1.13-1.38,2.06-2.42,2.79-1.04.73-2.36,1.1-3.99,1.1Zm1.14-4.23c1.44,0,2.56-.51,3.36-1.52.8-1.01,1.3-2.27,1.51-3.76h-4.28c-1.34,0-2.29.26-2.87.78-.58.52-.86,1.16-.86,1.92,0,.82.29,1.45.86,1.9.58.45,1.33.68,2.28.68Z"/>
        <path class="cls-2" d="m129.7,67.51c-2.02,0-3.8-.37-5.34-1.12-1.55-.75-2.76-1.82-3.65-3.21s-1.35-3.09-1.37-5.1h5.3c.05,1.38.52,2.54,1.39,3.49.88.94,2.09,1.42,3.63,1.42,1.33,0,2.4-.34,3.18-1.04.79-.69,1.18-1.61,1.18-2.77s-.35-2.16-1.04-2.83c-.69-.68-1.62-1.23-2.77-1.65-1.15-.42-2.38-.87-3.69-1.35-2.12-.79-3.74-1.8-4.85-3.04-1.11-1.24-1.67-2.89-1.67-4.95-.03-1.75.36-3.25,1.16-4.5.8-1.25,1.89-2.23,3.28-2.92,1.39-.69,2.99-1.04,4.79-1.04s3.45.35,4.85,1.06c1.4.71,2.5,1.69,3.3,2.96s1.22,2.78,1.28,4.52h-5.38c-.03-1.04-.4-1.97-1.12-2.77-.72-.8-1.72-1.21-3-1.21-1.1-.03-2.02.26-2.77.87-.75.61-1.12,1.49-1.12,2.64,0,.99.29,1.77.86,2.35.58.58,1.36,1.06,2.36,1.46,1,.4,2.13.82,3.42,1.27,1.36.51,2.61,1.1,3.73,1.78,1.13.68,2.03,1.57,2.71,2.69.68,1.11,1.02,2.54,1.02,4.29,0,1.55-.37,2.99-1.1,4.31-.73,1.33-1.82,2.39-3.26,3.19-1.44.8-3.21,1.21-5.3,1.21Z"/>
        <path class="cls-2" d="m153.19,67.51c-1.99,0-3.75-.46-5.26-1.4-1.52-.93-2.72-2.23-3.59-3.89-.88-1.66-1.32-3.57-1.32-5.71s.44-4.04,1.32-5.71c.88-1.66,2.08-2.96,3.59-3.89,1.52-.93,3.27-1.4,5.26-1.4,2.49,0,4.58.7,6.29,2.09,1.7,1.4,2.79,3.32,3.26,5.77h-5.3c-.26-1.02-.78-1.81-1.55-2.39-.77-.58-1.68-.87-2.73-.87-1.39,0-2.57.56-3.54,1.69s-1.45,2.69-1.45,4.69.48,3.57,1.45,4.69c.97,1.13,2.15,1.69,3.54,1.69,1.05,0,1.96-.28,2.73-.85.77-.56,1.29-1.37,1.55-2.41h5.3c-.47,2.37-1.56,4.27-3.26,5.71-1.7,1.44-3.8,2.16-6.29,2.16Z"/>
        <path class="cls-2" d="m169.92,42.77c-.92,0-1.67-.3-2.26-.89-.59-.59-.88-1.34-.88-2.24s.29-1.64.88-2.22c.59-.58,1.34-.87,2.26-.87s1.67.29,2.26.87c.59.58.88,1.32.88,2.22s-.29,1.65-.88,2.24c-.59.59-1.34.89-2.26.89Zm-2.51,24.23v-20.97h5.03v20.97h-5.03Z"/>
        <path class="cls-2" d="m187.16,67.51c-1.96,0-3.71-.45-5.22-1.35s-2.71-2.17-3.57-3.81c-.86-1.63-1.3-3.52-1.3-5.67s.42-4.1,1.28-5.79c.85-1.69,2.03-3.01,3.54-3.95,1.51-.94,3.28-1.42,5.32-1.42,1.91,0,3.6.45,5.07,1.35,1.47.9,2.61,2.14,3.44,3.7s1.24,3.31,1.24,5.22c0,.31,0,.63-.02.97-.01.34-.03.69-.06,1.06h-14.81c.1,1.64.63,2.92,1.59,3.85.96.93,2.11,1.4,3.48,1.4,1.02,0,1.88-.25,2.57-.74.69-.49,1.21-1.13,1.55-1.92h5.11c-.37,1.33-.98,2.53-1.83,3.62-.85,1.09-1.9,1.94-3.14,2.56-1.24.62-2.65.93-4.22.93Zm.04-17.59c-1.23,0-2.32.37-3.26,1.12-.94.75-1.55,1.88-1.81,3.4h9.7c-.08-1.38-.55-2.48-1.41-3.3-.86-.82-1.94-1.23-3.22-1.23Z"/>
        <path class="cls-2" d="m201.18,67v-20.97h4.44l.39,3.55c.6-1.24,1.47-2.23,2.61-2.96,1.14-.73,2.48-1.1,4.03-1.1,2.41,0,4.28.82,5.62,2.45,1.33,1.64,2,4.03,2,7.19v11.84h-5.03v-11.33c0-1.8-.34-3.19-1.02-4.14-.68-.96-1.74-1.44-3.18-1.44s-2.57.54-3.48,1.61c-.9,1.07-1.35,2.57-1.35,4.48v10.82h-5.03Z"/>
        <path class="cls-2" d="m234.61,67.51c-1.99,0-3.75-.46-5.26-1.4-1.52-.93-2.72-2.23-3.59-3.89-.88-1.66-1.32-3.57-1.32-5.71s.44-4.04,1.32-5.71c.88-1.66,2.08-2.96,3.59-3.89,1.52-.93,3.27-1.4,5.26-1.4,2.49,0,4.58.7,6.29,2.09,1.7,1.4,2.79,3.32,3.26,5.77h-5.3c-.26-1.02-.78-1.81-1.55-2.39-.77-.58-1.68-.87-2.73-.87-1.39,0-2.57.56-3.54,1.69s-1.45,2.69-1.45,4.69.48,3.57,1.45,4.69c.97,1.13,2.15,1.69,3.54,1.69,1.05,0,1.96-.28,2.73-.85.77-.56,1.29-1.37,1.55-2.41h5.3c-.47,2.37-1.56,4.27-3.26,5.71-1.7,1.44-3.8,2.16-6.29,2.16Z"/>
        <path class="cls-2" d="m258.1,67.51c-1.96,0-3.71-.45-5.22-1.35s-2.71-2.17-3.57-3.81c-.86-1.63-1.3-3.52-1.3-5.67s.42-4.1,1.28-5.79c.85-1.69,2.03-3.01,3.54-3.95,1.51-.94,3.28-1.42,5.32-1.42,1.91,0,3.6.45,5.07,1.35,1.47.9,2.61,2.14,3.44,3.7s1.24,3.31,1.24,5.22c0,.31,0,.63-.02.97-.01.34-.03.69-.06,1.06h-14.81c.1,1.64.63,2.92,1.59,3.85.96.93,2.11,1.4,3.48,1.4,1.02,0,1.88-.25,2.57-.74.69-.49,1.21-1.13,1.55-1.92h5.11c-.37,1.33-.98,2.53-1.83,3.62-.85,1.09-1.9,1.94-3.14,2.56-1.24.62-2.65.93-4.22.93Zm.04-17.59c-1.23,0-2.32.37-3.26,1.12-.94.75-1.55,1.88-1.81,3.4h9.7c-.08-1.38-.55-2.48-1.41-3.3-.86-.82-1.94-1.23-3.22-1.23Z"/>
      </g>
    </g>
    <circle class="cls-4" cx="68.54" cy="33.08" r="17.42"/>
    <path class="cls-1" d="m81.52,34.27c0-7.73-6.25-13.98-13.98-13.98"/>
    <path class="cls-3" d="m100.34,23.66c-.05-.16-.11-.32-.16-.48-.05-.16-.1-.32-.15-.48-1.26-4.28-3.82-8.47-7.25-12.12-3.9-4.15-8.58-7.11-14.03-8.88C73.56.03,68.26-.42,62.89.4c-3.89.59-7.56,1.9-11.01,3.86-2.01,1.14-3.86,2.45-5.59,3.92L8.81,36.13l14.7-2.95L0,50.71l39.47-13.45.77,2.68,5.19-1.77c-.2-.92-.35-1.86-.44-2.8,0-.06-.01-.12-.02-.18-.02-.21-.04-.43-.05-.64-.01-.2-.02-.41-.03-.61-.15-3.86.65-7.81,2.52-11.5,5.87-11.6,20.03-16.23,31.63-10.36,11.6,5.87,16.23,20.03,10.36,31.63s-20.03,16.23-31.63,10.36c-3.77-1.91-6.8-4.7-8.98-7.99-.02-.04-.05-.07-.07-.11,0-.02-.02-.03-.03-.05h0s0,0,0,0c-.48-.74-.92-1.49-1.31-2.28l-5.43,1.75.71,2.47L2.81,60.74h29.11l-9.21,4.46-4.12,1.95h.04s-.04.02-.04.02h.05l-.22.11h50.12,0c1.29-.02,2.59-.1,3.9-.26,3.94-.46,7.68-1.58,11.16-3.4,4.81-2.52,8.82-6.01,12.01-10.44,3.35-4.64,5.37-9.8,6.06-15.46.61-4.97.19-9.86-1.32-14.06Z"/>
  </g>
</svg>