<?xml version="1.0" encoding="UTF-8"?>
<svg id="Warstwa_2" data-name="Warstwa 2" xmlns="http://www.w3.org/2000/svg" viewBox="0 0 455.18 39.88">
  <defs>
    <style>
      .cls-1 {
        fill: #fff;
      }

      .cls-2 {
        fill: #102a38;
      }

      .cls-3, .cls-4 {
        fill: #57cc98;
      }

      .cls-4 {
        opacity: .5;
      }
    </style>
  </defs>
  <g id="Layer_3" data-name="Layer 3">
    <g>
      <path class="cls-2" d="m78.76,39.35V8.16h20.14v4.59h-14.44v8.73h11.67v4.5h-11.67v13.37h-5.7Z"/>
      <path class="cls-2" d="m108.7,39.88c-1.9,0-3.46-.3-4.68-.91-1.22-.61-2.12-1.42-2.72-2.43-.59-1.01-.89-2.12-.89-3.34,0-2.05.8-3.71,2.41-4.99,1.6-1.28,4.01-1.92,7.22-1.92h5.61v-.53c0-1.52-.43-2.63-1.29-3.34-.86-.71-1.93-1.07-3.21-1.07-1.16,0-2.17.27-3.03.82-.86.55-1.4,1.36-1.6,2.43h-5.57c.15-1.6.69-3,1.63-4.19.94-1.19,2.15-2.1,3.63-2.74,1.49-.64,3.15-.96,4.99-.96,3.15,0,5.63.79,7.44,2.36,1.81,1.57,2.72,3.8,2.72,6.68v13.59h-4.86l-.54-3.56c-.65,1.19-1.57,2.17-2.74,2.94-1.17.77-2.68,1.16-4.52,1.16Zm1.29-4.46c1.63,0,2.9-.54,3.81-1.6.91-1.07,1.48-2.39,1.71-3.97h-4.86c-1.52,0-2.6.27-3.25.82-.65.55-.98,1.23-.98,2.03,0,.86.33,1.53.98,2,.65.48,1.51.71,2.58.71Z"/>
      <path class="cls-2" d="m135.7,39.88c-1.96,0-3.68-.32-5.17-.96-1.49-.64-2.67-1.52-3.57-2.65-.89-1.13-1.43-2.44-1.6-3.92h5.75c.18.86.66,1.6,1.45,2.21.79.61,1.8.91,3.05.91s2.16-.25,2.74-.76c.58-.5.87-1.08.87-1.74,0-.95-.42-1.6-1.25-1.94-.83-.34-1.99-.68-3.48-1-.95-.21-1.92-.46-2.9-.76-.98-.3-1.88-.68-2.7-1.14-.82-.46-1.48-1.05-1.98-1.78-.51-.73-.76-1.63-.76-2.7,0-1.96.78-3.61,2.34-4.95,1.56-1.34,3.75-2.01,6.57-2.01,2.61,0,4.7.61,6.26,1.83,1.56,1.22,2.49,2.9,2.79,5.04h-5.39c-.33-1.63-1.56-2.45-3.7-2.45-1.07,0-1.89.21-2.47.62-.58.42-.87.94-.87,1.56s.43,1.17,1.29,1.56c.86.39,2,.74,3.43,1.07,1.54.36,2.96.75,4.25,1.18,1.29.43,2.32,1.07,3.1,1.92s1.16,2.06,1.16,3.63c.03,1.37-.33,2.6-1.07,3.7-.74,1.1-1.81,1.96-3.21,2.58-1.4.62-3.04.94-4.95.94Z"/>
      <path class="cls-2" d="m158.87,39.35c-2.32,0-4.17-.56-5.57-1.69-1.4-1.13-2.09-3.13-2.09-6.02v-9.62h-3.79v-4.77h3.79l.67-5.93h5.04v5.93h5.97v4.77h-5.97v9.67c0,1.07.23,1.8.69,2.21.46.4,1.25.6,2.38.6h2.76v4.86h-3.88Z"/>
      <path class="cls-2" d="m178.08,39.35V8.16h10.65c3.65,0,6.66.65,9.02,1.94,2.36,1.29,4.11,3.1,5.26,5.44,1.14,2.33,1.72,5.07,1.72,8.22s-.57,5.89-1.72,8.22c-1.14,2.33-2.9,4.14-5.26,5.44-2.36,1.29-5.37,1.94-9.02,1.94h-10.65Zm5.7-4.9h4.68c2.61,0,4.68-.42,6.19-1.27,1.52-.85,2.6-2.06,3.25-3.65.65-1.59.98-3.51.98-5.77s-.33-4.14-.98-5.75c-.65-1.6-1.74-2.84-3.25-3.7-1.51-.86-3.58-1.29-6.19-1.29h-4.68v21.43Z"/>
      <path class="cls-2" d="m217.02,39.88c-1.9,0-3.46-.3-4.68-.91-1.22-.61-2.12-1.42-2.72-2.43-.59-1.01-.89-2.12-.89-3.34,0-2.05.8-3.71,2.41-4.99,1.6-1.28,4.01-1.92,7.22-1.92h5.61v-.53c0-1.52-.43-2.63-1.29-3.34-.86-.71-1.93-1.07-3.21-1.07-1.16,0-2.17.27-3.03.82-.86.55-1.4,1.36-1.6,2.43h-5.57c.15-1.6.69-3,1.63-4.19.94-1.19,2.15-2.1,3.63-2.74,1.49-.64,3.15-.96,4.99-.96,3.15,0,5.63.79,7.44,2.36,1.81,1.57,2.72,3.8,2.72,6.68v13.59h-4.86l-.54-3.56c-.65,1.19-1.57,2.17-2.74,2.94-1.17.77-2.68,1.16-4.52,1.16Zm1.29-4.46c1.63,0,2.9-.54,3.81-1.6.91-1.07,1.48-2.39,1.71-3.97h-4.86c-1.52,0-2.6.27-3.25.82-.65.55-.98,1.23-.98,2.03,0,.86.33,1.53.98,2,.65.48,1.51.71,2.58.71Z"/>
      <path class="cls-2" d="m244.43,39.35c-2.32,0-4.17-.56-5.57-1.69-1.4-1.13-2.09-3.13-2.09-6.02v-9.62h-3.79v-4.77h3.79l.67-5.93h5.04v5.93h5.97v4.77h-5.97v9.67c0,1.07.23,1.8.69,2.21.46.4,1.25.6,2.38.6h2.76v4.86h-3.88Z"/>
      <path class="cls-2" d="m260.73,39.88c-1.9,0-3.46-.3-4.68-.91-1.22-.61-2.12-1.42-2.72-2.43-.59-1.01-.89-2.12-.89-3.34,0-2.05.8-3.71,2.41-4.99,1.6-1.28,4.01-1.92,7.22-1.92h5.61v-.53c0-1.52-.43-2.63-1.29-3.34-.86-.71-1.93-1.07-3.21-1.07-1.16,0-2.17.27-3.03.82-.86.55-1.4,1.36-1.6,2.43h-5.57c.15-1.6.69-3,1.63-4.19.94-1.19,2.15-2.1,3.63-2.74,1.49-.64,3.15-.96,4.99-.96,3.15,0,5.63.79,7.44,2.36,1.81,1.57,2.72,3.8,2.72,6.68v13.59h-4.86l-.54-3.56c-.65,1.19-1.57,2.17-2.74,2.94-1.17.77-2.68,1.16-4.52,1.16Zm1.29-4.46c1.63,0,2.9-.54,3.81-1.6.91-1.07,1.48-2.39,1.71-3.97h-4.86c-1.52,0-2.6.27-3.25.82-.65.55-.98,1.23-.98,2.03,0,.86.33,1.53.98,2,.65.48,1.51.71,2.58.71Z"/>
      <path class="cls-2" d="m299.77,39.88c-2.29,0-4.31-.39-6.06-1.18s-3.13-1.92-4.14-3.39c-1.01-1.47-1.53-3.26-1.56-5.37h6.02c.06,1.46.59,2.68,1.58,3.68.99,1,2.37,1.49,4.12,1.49,1.51,0,2.72-.36,3.61-1.09.89-.73,1.34-1.7,1.34-2.92s-.39-2.27-1.18-2.99c-.79-.71-1.83-1.29-3.14-1.74-1.31-.45-2.7-.92-4.19-1.43-2.41-.83-4.24-1.9-5.5-3.21-1.26-1.31-1.89-3.04-1.89-5.21-.03-1.84.41-3.42,1.31-4.75.91-1.32,2.15-2.35,3.72-3.07,1.57-.73,3.39-1.09,5.44-1.09s3.91.37,5.5,1.11c1.59.74,2.84,1.78,3.74,3.12.91,1.34,1.39,2.93,1.45,4.77h-6.1c-.03-1.1-.45-2.07-1.27-2.92-.82-.85-1.95-1.27-3.41-1.27-1.25-.03-2.29.27-3.14.91-.85.64-1.27,1.57-1.27,2.79,0,1.04.33,1.86.98,2.47.65.61,1.54,1.12,2.67,1.54,1.13.42,2.42.86,3.88,1.34,1.54.53,2.96,1.16,4.23,1.87,1.28.71,2.3,1.66,3.07,2.83.77,1.17,1.16,2.68,1.16,4.52,0,1.63-.42,3.15-1.25,4.54-.83,1.4-2.07,2.52-3.7,3.36s-3.64,1.27-6.01,1.27Z"/>
      <path class="cls-2" d="m326.19,39.88c-2.26,0-4.25-.49-5.97-1.47-1.72-.98-3.08-2.35-4.08-4.1-1-1.75-1.49-3.76-1.49-6.02s.5-4.26,1.49-6.02c1-1.75,2.35-3.12,4.08-4.1,1.72-.98,3.71-1.47,5.97-1.47,2.82,0,5.2.74,7.13,2.21,1.93,1.47,3.16,3.5,3.7,6.08h-6.02c-.3-1.07-.88-1.91-1.76-2.52-.88-.61-1.91-.91-3.1-.91-1.58,0-2.91.59-4.01,1.78-1.1,1.19-1.65,2.84-1.65,4.95s.55,3.76,1.65,4.95c1.1,1.19,2.44,1.78,4.01,1.78,1.19,0,2.22-.3,3.1-.89.88-.59,1.46-1.44,1.76-2.54h6.02c-.54,2.5-1.77,4.5-3.7,6.02-1.93,1.52-4.31,2.27-7.13,2.27Z"/>
      <path class="cls-2" d="m344.95,13.81c-1.04,0-1.89-.31-2.56-.94-.67-.62-1-1.41-1-2.36s.33-1.73,1-2.34c.67-.61,1.52-.91,2.56-.91s1.89.31,2.56.91c.67.61,1,1.39,1,2.34s-.33,1.74-1,2.36c-.67.62-1.52.94-2.56.94Zm-2.85,25.53v-22.1h5.7v22.1h-5.7Z"/>
      <path class="cls-2" d="m364.28,39.88c-2.23,0-4.2-.48-5.93-1.43-1.72-.95-3.08-2.29-4.06-4.01-.98-1.72-1.47-3.71-1.47-5.97s.48-4.32,1.45-6.1c.96-1.78,2.3-3.17,4.01-4.17,1.71-.99,3.72-1.49,6.04-1.49,2.17,0,4.08.48,5.75,1.43,1.66.95,2.96,2.25,3.9,3.9.94,1.65,1.4,3.48,1.4,5.5,0,.33,0,.67-.02,1.02-.02.36-.04.73-.07,1.11h-16.8c.12,1.72.72,3.07,1.8,4.05,1.08.98,2.4,1.47,3.94,1.47,1.16,0,2.13-.26,2.92-.78.79-.52,1.37-1.2,1.76-2.03h5.79c-.42,1.4-1.11,2.67-2.07,3.81-.97,1.14-2.15,2.04-3.56,2.7-1.41.65-3.01.98-4.79.98Zm.04-18.54c-1.4,0-2.63.39-3.7,1.18-1.07.79-1.75,1.98-2.05,3.59h11.01c-.09-1.46-.62-2.61-1.6-3.48-.98-.86-2.2-1.29-3.65-1.29Z"/>
      <path class="cls-2" d="m379.97,39.35v-22.1h5.04l.45,3.74c.68-1.31,1.67-2.35,2.96-3.12,1.29-.77,2.81-1.16,4.57-1.16,2.73,0,4.86.86,6.37,2.58,1.51,1.72,2.27,4.25,2.27,7.57v12.48h-5.7v-11.94c0-1.9-.39-3.36-1.16-4.37-.77-1.01-1.98-1.51-3.61-1.51s-2.92.56-3.94,1.69c-1.02,1.13-1.54,2.7-1.54,4.72v11.41h-5.7Z"/>
      <path class="cls-2" d="m417.66,39.88c-2.26,0-4.25-.49-5.97-1.47-1.72-.98-3.08-2.35-4.08-4.1-1-1.75-1.49-3.76-1.49-6.02s.5-4.26,1.49-6.02c1-1.75,2.35-3.12,4.08-4.1,1.72-.98,3.71-1.47,5.97-1.47,2.82,0,5.2.74,7.13,2.21,1.93,1.47,3.16,3.5,3.7,6.08h-6.02c-.3-1.07-.88-1.91-1.76-2.52-.88-.61-1.91-.91-3.1-.91-1.58,0-2.91.59-4.01,1.78-1.1,1.19-1.65,2.84-1.65,4.95s.55,3.76,1.65,4.95c1.1,1.19,2.44,1.78,4.01,1.78,1.19,0,2.22-.3,3.1-.89.88-.59,1.46-1.44,1.76-2.54h6.02c-.54,2.5-1.77,4.5-3.7,6.02-1.93,1.52-4.31,2.27-7.13,2.27Z"/>
      <path class="cls-2" d="m444.09,39.88c-2.23,0-4.2-.48-5.93-1.43-1.72-.95-3.08-2.29-4.06-4.01-.98-1.72-1.47-3.71-1.47-5.97s.48-4.32,1.45-6.1c.96-1.78,2.3-3.17,4.01-4.17,1.71-.99,3.72-1.49,6.04-1.49,2.17,0,4.08.48,5.75,1.43,1.66.95,2.96,2.25,3.9,3.9.94,1.65,1.4,3.48,1.4,5.5,0,.33,0,.67-.02,1.02-.02.36-.04.73-.07,1.11h-16.8c.12,1.72.72,3.07,1.8,4.05,1.08.98,2.4,1.47,3.94,1.47,1.16,0,2.13-.26,2.92-.78.79-.52,1.37-1.2,1.76-2.03h5.79c-.42,1.4-1.11,2.67-2.07,3.81-.97,1.14-2.15,2.04-3.56,2.7-1.41.65-3.01.98-4.79.98Zm.04-18.54c-1.4,0-2.63.39-3.7,1.18-1.07.79-1.75,1.98-2.05,3.59h11.01c-.09-1.46-.62-2.61-1.6-3.48-.98-.86-2.2-1.29-3.65-1.29Z"/>
    </g>
    <circle class="cls-4" cx="40.19" cy="19.4" r="10.22"/>
    <path class="cls-1" d="m47.8,20.1c0-4.53-3.67-8.2-8.2-8.2"/>
    <path class="cls-3" d="m58.84,13.87c-.03-.09-.06-.19-.09-.28-.03-.09-.06-.19-.09-.28-.74-2.51-2.24-4.97-4.25-7.11-2.29-2.44-5.03-4.17-8.23-5.21C43.13.01,40.03-.25,36.88.23c-2.28.35-4.43,1.11-6.46,2.26-1.18.67-2.26,1.44-3.28,2.3L5.16,21.19l8.62-1.73L0,29.74l23.15-7.89.45,1.57,3.04-1.04c-.12-.54-.2-1.09-.26-1.64,0-.04,0-.07-.01-.11-.01-.12-.02-.25-.03-.37,0-.12-.01-.24-.02-.36-.09-2.26.38-4.58,1.48-6.75,3.44-6.8,11.75-9.52,18.55-6.08s9.52,11.75,6.08,18.55-11.75,9.52-18.55,6.08c-2.21-1.12-3.99-2.76-5.26-4.68-.01-.02-.03-.04-.04-.06,0,0-.01-.02-.02-.03h0s0,0,0,0c-.28-.43-.54-.88-.77-1.33l-3.18,1.03.42,1.45L1.65,35.62h17.07l-5.4,2.61-2.42,1.14h.02s-.02.01-.02.01h.03l-.13.06h29.39,0c.76-.01,1.52-.06,2.29-.15,2.31-.27,4.5-.93,6.55-2,2.82-1.48,5.17-3.53,7.04-6.12,1.96-2.72,3.15-5.75,3.55-9.06.36-2.91.11-5.78-.78-8.25Z"/>
  </g>
</svg>